<svg id="Filled" height="512" viewBox="0 0 512 512" width="512" xmlns="http://www.w3.org/2000/svg"><path d="m88 200h336v224h-336z" fill="#f7b030"/><path d="m64 248a32 32 0 0 1 -32-32h64a32 32 0 0 1 -32 32z" fill="#eb423f"/><path d="m128 248a32 32 0 0 1 -32-32h64a32 32 0 0 1 -32 32z" fill="#dadcde"/><path d="m192 248a32 32 0 0 1 -32-32h64a32 32 0 0 1 -32 32z" fill="#eb423f"/><path d="m256 248a32 32 0 0 1 -32-32h64a32 32 0 0 1 -32 32z" fill="#dadcde"/><path d="m320 248a32 32 0 0 1 -32-32h64a32 32 0 0 1 -32 32z" fill="#eb423f"/><path d="m384 248a32 32 0 0 1 -32-32h64a32 32 0 0 1 -32 32z" fill="#dadcde"/><path d="m448 248a32 32 0 0 1 -32-32h64a32 32 0 0 1 -32 32z" fill="#eb423f"/><path d="m456 152h-16-24-360l-24 64h384 24 40z" fill="#c7312e"/><path d="m136 280h80v144h-80z" fill="#e9eef2"/><path d="m264 280h112v96h-112z" fill="#3397e8"/><path d="m424 120h-336a32 32 0 0 0 -32 32h400a32 32 0 0 0 -32-32z" fill="#a82a27"/><path d="m24 424h464v32h-464z" fill="#ad6643"/><path d="m160 56h192v64h-192z" fill="#f7b030"/><g fill="#d0d2d4"><path d="m96 152h64v64h-64z"/><path d="m224 152h64v64h-64z"/><path d="m352 152h64v64h-64z"/></g><path d="m264 384h112a8 8 0 0 0 8-8v-96a8 8 0 0 0 -8-8h-112a8 8 0 0 0 -8 8v96a8 8 0 0 0 8 8zm8-48h40v32h-40zm56 32v-32h40v32zm40-48h-40v-32h40zm-56-32v32h-40v-32z"/><circle cx="200" cy="344" r="8"/><path d="m24 464h464a8 8 0 0 0 8-8v-32a8 8 0 0 0 -8-8h-56v-163.35a39.98 39.98 0 0 0 56-36.65 7.974 7.974 0 0 0 -.516-2.807h.006l-23.529-62.746a40.044 40.044 0 0 0 -39.961-38.447h-64v-56a8 8 0 0 0 -8-8h-192a8 8 0 0 0 -8 8v56h-64a40.044 40.044 0 0 0 -39.961 38.445l-23.529 62.746h.006a7.974 7.974 0 0 0 -.516 2.809 39.98 39.98 0 0 0 56 36.65v163.35h-56a8 8 0 0 0 -8 8v32a8 8 0 0 0 8 8zm336-256v-48h48v48zm46.629 16a24 24 0 0 1 -45.258 0zm-110.629-16v-48h48v48zm46.629 16a24 24 0 0 1 -45.258 0zm-110.629-16v-48h48v48zm46.629 16a24 24 0 0 1 -45.258 0zm-110.629-16v-48h48v48zm46.629 16a24 24 0 0 1 -45.258 0zm-110.629-16v-48h48v48zm46.629 16a24 24 0 0 1 -45.258 0zm-89.085-64h26.456v48h-44.456zm406.912 48h-44.456v-48h26.456zm-20.456 32a24.042 24.042 0 0 1 -22.629-16h45.258a24.042 24.042 0 0 1 -22.629 16zm-280-176h176v48h-176zm-80 64h336a24.042 24.042 0 0 1 22.629 16h-381.258a24.042 24.042 0 0 1 22.629-16zm-46.629 96h45.258a24 24 0 0 1 -45.258 0zm54.607 16 .022-.028a39.958 39.958 0 0 0 64 0 39.958 39.958 0 0 0 64 0 39.958 39.958 0 0 0 64 0 39.958 39.958 0 0 0 64 0 39.958 39.958 0 0 0 64 0l.022.028h-.022v176h-192v-136a8 8 0 0 0 -8-8h-80a8 8 0 0 0 -8 8v136h-32v-176zm112.022 104v72h-64v-128h64zm-176 88h448v16h-448z"/><path d="m320 80h-128a8 8 0 0 0 0 16h128a8 8 0 0 0 0-16z"/></svg>